<mxfile host="65bd71144e">
    <diagram id="nLl3904XV83ixPUlGm5n" name="Page-1">
        <mxGraphModel dx="1426" dy="818" grid="1" gridSize="10" guides="1" tooltips="1" connect="1" arrows="1" fold="1" page="1" pageScale="1" pageWidth="1654" pageHeight="2336" math="0" shadow="0">
            <root>
                <mxCell id="0"/>
                <mxCell id="1" parent="0"/>
                <mxCell id="2" value="" style="rounded=0;whiteSpace=wrap;html=1;" vertex="1" parent="1">
                    <mxGeometry x="130" y="130" width="380" height="590" as="geometry"/>
                </mxCell>
                <mxCell id="3" value="ECStack 执行上下文栈" style="text;html=1;strokeColor=none;fillColor=none;align=center;verticalAlign=middle;whiteSpace=wrap;rounded=0;fontSize=14;" vertex="1" parent="1">
                    <mxGeometry x="160" y="80" width="300" height="60" as="geometry"/>
                </mxCell>
                <mxCell id="4" value="" style="rounded=0;whiteSpace=wrap;html=1;fontSize=14;" vertex="1" parent="1">
                    <mxGeometry x="615" y="120" width="610" height="680" as="geometry"/>
                </mxCell>
                <mxCell id="5" value="堆内存" style="text;html=1;strokeColor=none;fillColor=none;align=center;verticalAlign=middle;whiteSpace=wrap;rounded=0;fontSize=16;" vertex="1" parent="1">
                    <mxGeometry x="770" y="70" width="300" height="60" as="geometry"/>
                </mxCell>
                <mxCell id="7" value="+Date&lt;br&gt;+Array&lt;br&gt;+String&lt;br&gt;+window&lt;br&gt;+setTimeout&lt;br&gt;&lt;br&gt;&lt;br&gt;自己定义的属性:&lt;br&gt;myName: underfined&lt;br&gt;foo: 0xaoo&lt;br&gt;num1: underfined&lt;br&gt;num2: underfined&lt;br&gt;result: underfined" style="rounded=0;whiteSpace=wrap;html=1;fontSize=16;align=left;" vertex="1" parent="1">
                    <mxGeometry x="665" y="190" width="185" height="280" as="geometry"/>
                </mxCell>
                <mxCell id="8" value="GlobalObject: 0x100" style="text;html=1;strokeColor=none;fillColor=none;align=center;verticalAlign=middle;whiteSpace=wrap;rounded=0;fontSize=16;" vertex="1" parent="1">
                    <mxGeometry x="676" y="157.5" width="163" height="25" as="geometry"/>
                </mxCell>
                <mxCell id="9" value="[[scope]] : parent scope&lt;br&gt;函数的执行体(代码块)" style="rounded=0;whiteSpace=wrap;html=1;fontSize=16;" vertex="1" parent="1">
                    <mxGeometry x="970" y="190" width="180" height="160" as="geometry"/>
                </mxCell>
                <mxCell id="10" value="foo函数对象: 0xa00" style="text;html=1;strokeColor=none;fillColor=none;align=center;verticalAlign=middle;whiteSpace=wrap;rounded=0;fontSize=16;" vertex="1" parent="1">
                    <mxGeometry x="965" y="160" width="190" height="20" as="geometry"/>
                </mxCell>
                <mxCell id="14" value="" style="endArrow=classic;html=1;fontSize=16;entryX=0;entryY=0.5;entryDx=0;entryDy=0;" edge="1" parent="1" target="9">
                    <mxGeometry width="50" height="50" relative="1" as="geometry">
                        <mxPoint x="750" y="385" as="sourcePoint"/>
                        <mxPoint x="970" y="306.9354838709678" as="targetPoint"/>
                    </mxGeometry>
                </mxCell>
                <mxCell id="17" value="GEC全局执行上下文" style="text;html=1;strokeColor=none;fillColor=none;align=center;verticalAlign=middle;whiteSpace=wrap;rounded=0;fontSize=16;" vertex="1" parent="1">
                    <mxGeometry x="225" y="420" width="190" height="20" as="geometry"/>
                </mxCell>
                <mxCell id="18" value="" style="rounded=0;whiteSpace=wrap;html=1;fontSize=16;" vertex="1" parent="1">
                    <mxGeometry x="175" y="450" width="295" height="230" as="geometry"/>
                </mxCell>
                <mxCell id="19" value="VO（variable object）: GO" style="rounded=0;whiteSpace=wrap;html=1;fontSize=14;" vertex="1" parent="1">
                    <mxGeometry x="180" y="470" width="280" height="70" as="geometry"/>
                </mxCell>
                <mxCell id="20" value="开始执行代码（从上往下依次执行）&lt;br&gt;var myName = &quot;xiaoming&quot;&lt;br&gt;var num1 = 10&lt;br&gt;var num2&amp;nbsp; = 20&lt;br&gt;var result = 30&lt;br&gt;console.log(result)&lt;br&gt;foo()" style="rounded=0;whiteSpace=wrap;html=1;fontSize=12;align=left;" vertex="1" parent="1">
                    <mxGeometry x="180" y="540" width="280" height="120" as="geometry"/>
                </mxCell>
                <mxCell id="25" value="遇到函数如何执行?&lt;br&gt;&lt;br&gt;在执行过程中遇到一个函数时，就会根据函数体创建一个函数执行上下文(Function Execute context)，压入到执行上下文栈中（ECStack）&lt;br&gt;&lt;br&gt;函数执行上下文中包含三部分内容:&lt;br&gt;①&amp;nbsp; 第一部分：在解析函数成为AST树结构时，会创建一个AO对象&lt;br&gt;&amp;nbsp; &amp;nbsp;AO中包含：形参，arguments，函数定义和指向函数对象，定义的变量&lt;br&gt;&lt;br&gt;② 第二部分: 作用域链，由VO和父级VO组成，查找时会一层一层查找&lt;br&gt;&lt;br&gt;③ 第三部分：this的绑定值" style="text;html=1;strokeColor=none;fillColor=none;align=left;verticalAlign=middle;whiteSpace=wrap;rounded=0;fontSize=14;" vertex="1" parent="1">
                    <mxGeometry x="200" y="830" width="540" height="250" as="geometry"/>
                </mxCell>
                <mxCell id="26" value="" style="rounded=0;whiteSpace=wrap;html=1;fontSize=14;align=left;" vertex="1" parent="1">
                    <mxGeometry x="200" y="1100" width="520" height="180" as="geometry"/>
                </mxCell>
                <mxCell id="27" value="+VO: 形参、arguments、function、变量" style="rounded=0;whiteSpace=wrap;html=1;fontSize=14;align=left;" vertex="1" parent="1">
                    <mxGeometry x="200" y="1130" width="520" height="50" as="geometry"/>
                </mxCell>
                <mxCell id="28" value="Function Execute context" style="text;html=1;strokeColor=none;fillColor=none;align=center;verticalAlign=middle;whiteSpace=wrap;rounded=0;fontSize=14;" vertex="1" parent="1">
                    <mxGeometry x="352.5" y="1110" width="215" height="20" as="geometry"/>
                </mxCell>
                <mxCell id="29" value="" style="rounded=0;whiteSpace=wrap;html=1;fontSize=14;align=left;" vertex="1" parent="1">
                    <mxGeometry x="200" y="1190" width="520" height="50" as="geometry"/>
                </mxCell>
                <mxCell id="31" value="+Scope chain:&amp;nbsp; VO、parent VO" style="rounded=0;whiteSpace=wrap;html=1;fontSize=14;align=left;" vertex="1" parent="1">
                    <mxGeometry x="200" y="1180" width="520" height="50" as="geometry"/>
                </mxCell>
                <mxCell id="32" value="+thisValue: 根据不同情况绑定this&amp;nbsp;&amp;nbsp;" style="rounded=0;whiteSpace=wrap;html=1;fontSize=14;align=left;" vertex="1" parent="1">
                    <mxGeometry x="200" y="1230" width="520" height="50" as="geometry"/>
                </mxCell>
                <mxCell id="33" value="FEC函数执行上下文" style="text;html=1;strokeColor=none;fillColor=none;align=center;verticalAlign=middle;whiteSpace=wrap;rounded=0;fontSize=16;" vertex="1" parent="1">
                    <mxGeometry x="230" y="150" width="190" height="20" as="geometry"/>
                </mxCell>
                <mxCell id="34" value="" style="rounded=0;whiteSpace=wrap;html=1;fontSize=16;" vertex="1" parent="1">
                    <mxGeometry x="180" y="180" width="295" height="230" as="geometry"/>
                </mxCell>
                <mxCell id="35" value="VO（variable object）: AO&lt;br&gt;scope chain：VO&amp;nbsp; + GO&lt;br&gt;thisValue" style="rounded=0;whiteSpace=wrap;html=1;fontSize=14;align=left;" vertex="1" parent="1">
                    <mxGeometry x="185" y="200" width="280" height="70" as="geometry"/>
                </mxCell>
                <mxCell id="36" value="开始执行代码&lt;span style=&quot;white-space: pre&quot;&gt;&#9;&lt;/span&gt;（从上往下依次执行）" style="rounded=0;whiteSpace=wrap;html=1;fontSize=12;align=left;" vertex="1" parent="1">
                    <mxGeometry x="185" y="270" width="280" height="120" as="geometry"/>
                </mxCell>
                <mxCell id="37" value="形参：&lt;br&gt;num: underfined&lt;br&gt;定义的变量：&lt;br&gt;myName: underfined" style="rounded=0;whiteSpace=wrap;html=1;fontSize=16;align=left;" vertex="1" parent="1">
                    <mxGeometry x="670" y="570" width="180" height="160" as="geometry"/>
                </mxCell>
                <mxCell id="38" value="ActiveObject: 0x200" style="text;html=1;strokeColor=none;fillColor=none;align=center;verticalAlign=middle;whiteSpace=wrap;rounded=0;fontSize=16;" vertex="1" parent="1">
                    <mxGeometry x="665" y="540" width="190" height="20" as="geometry"/>
                </mxCell>
                <mxCell id="42" value="" style="edgeStyle=elbowEdgeStyle;elbow=horizontal;endArrow=classic;html=1;fontSize=14;entryX=0.007;entryY=0.575;entryDx=0;entryDy=0;entryPerimeter=0;" edge="1" parent="1" target="37">
                    <mxGeometry width="50" height="50" relative="1" as="geometry">
                        <mxPoint x="380" y="220" as="sourcePoint"/>
                        <mxPoint x="665" y="663" as="targetPoint"/>
                        <Array as="points">
                            <mxPoint x="550" y="450"/>
                        </Array>
                    </mxGeometry>
                </mxCell>
                <mxCell id="45" value="" style="endArrow=classic;html=1;fontSize=14;entryX=0;entryY=0.5;entryDx=0;entryDy=0;" edge="1" parent="1" target="7">
                    <mxGeometry width="50" height="50" relative="1" as="geometry">
                        <mxPoint x="410" y="500" as="sourcePoint"/>
                        <mxPoint x="670" y="340" as="targetPoint"/>
                    </mxGeometry>
                </mxCell>
            </root>
        </mxGraphModel>
    </diagram>
</mxfile>